0
SECTION
2
HEADER
9
$ACADVER
1
AC1009
9
$INSUNITS
70
1
9
$MEASUREMENT
70
0
9
$LUNITS
70
2
9
$EXTMIN
10
-11.250000
20
-11.250000
30
0.000000
9
$EXTMAX
10
17.125000
20
11.250000
30
0.000000
9
$LIMMIN
10
-11.250000
20
-11.250000
9
$LIMMAX
10
17.125000
20
11.250000
0
ENDSEC
0
SECTION
2
TABLES
0
TABLE
2
LTYPE
70
1
0
LTYPE
2
CONTINUOUS
70
0
3
Solid line
72
65
73
0
40
0.000000
0
ENDTAB
0
TABLE
2
LAYER
70
2
0
LAYER
2
CUT
70
0
62
7
6
CONTINUOUS
0
LAYER
2
ETCH
70
0
62
1
6
CONTINUOUS
0
ENDTAB
0
TABLE
2
STYLE
70
1
0
STYLE
2
STANDARD
70
0
40
0.000000
41
1.000000
50
0.000000
71
0
42
0.200000
3
txt
4

0
ENDTAB
0
ENDSEC
0
SECTION
2
ENTITIES
0
ARC
8
CUT
10
0
20
0
30
0.000000
40
11.250000
50
6.172771
51
353.827229
0
ARC
8
CUT
10
11.557600
20
1.250000
30
0.000000
40
0.375000
50
186.172771
51
270.000000
0
LINE
8
CUT
10
11.557600
20
0.875000
30
0.000000
11
15.500000
21
0.875000
31
0.000000
0
ARC
8
CUT
10
15.500000
20
1.250000
30
0.000000
40
0.375000
50
270.000000
51
0.000000
0
LINE
8
CUT
10
15.875000
20
1.250000
30
0.000000
11
15.875000
21
2.125000
31
0.000000
0
ARC
8
CUT
10
16.125000
20
2.125000
30
0.000000
40
0.250000
50
90.000000
51
180.000000
0
LINE
8
CUT
10
16.125000
20
2.375000
30
0.000000
11
16.875000
21
2.375000
31
0.000000
0
ARC
8
CUT
10
16.875000
20
2.125000
30
0.000000
40
0.250000
50
0.000000
51
90.000000
0
LINE
8
CUT
10
17.125000
20
2.125000
30
0.000000
11
17.125000
21
-2.125000
31
0.000000
0
ARC
8
CUT
10
16.875000
20
-2.125000
30
0.000000
40
0.250000
50
270.000000
51
0.000000
0
LINE
8
CUT
10
16.875000
20
-2.375000
30
0.000000
11
16.125000
21
-2.375000
31
0.000000
0
ARC
8
CUT
10
16.125000
20
-2.125000
30
0.000000
40
0.250000
50
180.000000
51
270.000000
0
LINE
8
CUT
10
15.875000
20
-2.125000
30
0.000000
11
15.875000
21
-1.250000
31
0.000000
0
ARC
8
CUT
10
15.500000
20
-1.250000
30
0.000000
40
0.375000
50
0.000000
51
90.000000
0
LINE
8
CUT
10
15.500000
20
-0.875000
30
0.000000
11
11.557600
21
-0.875000
31
0.000000
0
ARC
8
CUT
10
11.557600
20
-1.250000
30
0.000000
40
0.375000
50
90.000000
51
173.827229
0
TEXT
8
ETCH
10
0.000000
20
0.000000
30
0.000000
40
0.500000
1
16 CL900 SKILLET
50
0.000000
41
1.000000
7
STANDARD
72
1
73
2
11
0.000000
21
0.000000
31
0.000000
0
ENDSEC
0
EOF
