0
SECTION
2
HEADER
9
$ACADVER
1
AC1009
9
$INSUNITS
70
1
9
$MEASUREMENT
70
0
9
$LUNITS
70
2
9
$EXTMIN
10
-8.500000
20
-8.500000
30
0.000000
9
$EXTMAX
10
13.750000
20
8.500000
30
0.000000
9
$LIMMIN
10
-8.500000
20
-8.500000
9
$LIMMAX
10
13.750000
20
8.500000
0
ENDSEC
0
SECTION
2
TABLES
0
TABLE
2
LTYPE
70
1
0
LTYPE
2
CONTINUOUS
70
0
3
Solid line
72
65
73
0
40
0.000000
0
ENDTAB
0
TABLE
2
LAYER
70
2
0
LAYER
2
CUT
70
0
62
7
6
CONTINUOUS
0
LAYER
2
ETCH
70
0
62
1
6
CONTINUOUS
0
ENDTAB
0
TABLE
2
STYLE
70
1
0
STYLE
2
STANDARD
70
0
40
0.000000
41
1.000000
50
0.000000
71
0
42
0.200000
3
txt
4

0
ENDTAB
0
ENDSEC
0
SECTION
2
ENTITIES
0
ARC
8
CUT
10
0
20
0
30
0.000000
40
8.500000
50
4.125563
51
355.874437
0
ARC
8
CUT
10
8.664989
20
0.625000
30
0.000000
40
0.187500
50
184.125563
51
270.000000
0
LINE
8
CUT
10
8.664989
20
0.437500
30
0.000000
11
12.562500
21
0.437500
31
0.000000
0
ARC
8
CUT
10
12.562500
20
0.625000
30
0.000000
40
0.187500
50
270.000000
51
0.000000
0
LINE
8
CUT
10
12.750000
20
0.625000
30
0.000000
11
12.750000
21
1.250000
31
0.000000
0
ARC
8
CUT
10
13.000000
20
1.250000
30
0.000000
40
0.250000
50
90.000000
51
180.000000
0
LINE
8
CUT
10
13.000000
20
1.500000
30
0.000000
11
13.500000
21
1.500000
31
0.000000
0
ARC
8
CUT
10
13.500000
20
1.250000
30
0.000000
40
0.250000
50
0.000000
51
90.000000
0
LINE
8
CUT
10
13.750000
20
1.250000
30
0.000000
11
13.750000
21
-1.250000
31
0.000000
0
ARC
8
CUT
10
13.500000
20
-1.250000
30
0.000000
40
0.250000
50
270.000000
51
0.000000
0
LINE
8
CUT
10
13.500000
20
-1.500000
30
0.000000
11
13.000000
21
-1.500000
31
0.000000
0
ARC
8
CUT
10
13.000000
20
-1.250000
30
0.000000
40
0.250000
50
180.000000
51
270.000000
0
LINE
8
CUT
10
12.750000
20
-1.250000
30
0.000000
11
12.750000
21
-0.625000
31
0.000000
0
ARC
8
CUT
10
12.562500
20
-0.625000
30
0.000000
40
0.187500
50
0.000000
51
90.000000
0
LINE
8
CUT
10
12.562500
20
-0.437500
30
0.000000
11
8.664989
21
-0.437500
31
0.000000
0
ARC
8
CUT
10
8.664989
20
-0.625000
30
0.000000
40
0.187500
50
90.000000
51
175.874437
0
TEXT
8
ETCH
10
0.000000
20
0.000000
30
0.000000
40
0.500000
1
10 CL900 SKILLET
50
0.000000
41
1.000000
7
STANDARD
72
1
73
2
11
0.000000
21
0.000000
31
0.000000
0
ENDSEC
0
EOF
