0
SECTION
2
HEADER
9
$ACADVER
1
AC1009
9
$INSUNITS
70
1
9
$MEASUREMENT
70
0
9
$LUNITS
70
2
9
$EXTMIN
10
-1.810000
20
-1.810000
30
0.000000
9
$EXTMAX
10
6.430000
20
1.810000
30
0.000000
9
$LIMMIN
10
-1.810000
20
-1.810000
9
$LIMMAX
10
6.430000
20
1.810000
0
ENDSEC
0
SECTION
2
TABLES
0
TABLE
2
LTYPE
70
1
0
LTYPE
2
CONTINUOUS
70
0
3
Solid line
72
65
73
0
40
0.000000
0
ENDTAB
0
TABLE
2
LAYER
70
2
0
LAYER
2
CUT
70
0
62
7
6
CONTINUOUS
0
LAYER
2
ETCH
70
0
62
1
6
CONTINUOUS
0
ENDTAB
0
TABLE
2
STYLE
70
1
0
STYLE
2
STANDARD
70
0
40
0.000000
41
1.000000
50
0.000000
71
0
42
0.200000
3
txt
4

0
ENDTAB
0
ENDSEC
0
SECTION
2
ENTITIES
0
ARC
8
CUT
10
0
20
0
30
0.000000
40
1.810000
50
25.135301
51
334.864699
0
ARC
8
CUT
10
1.864933
20
0.875000
30
0.000000
40
0.250000
50
205.135301
51
270.000000
0
LINE
8
CUT
10
1.864933
20
0.625000
30
0.000000
11
2.755067
21
0.625000
31
0.000000
0
ARC
8
CUT
10
2.755067
20
0.875000
30
0.000000
40
0.250000
50
270.000000
51
334.864699
0
ARC
8
CUT
10
4.620000
20
0
30
0.000000
40
1.810000
50
205.135301
51
154.864699
0
ARC
8
CUT
10
2.755067
20
-0.875000
30
0.000000
40
0.250000
50
25.135301
51
90.000000
0
LINE
8
CUT
10
2.755067
20
-0.625000
30
0.000000
11
1.864933
21
-0.625000
31
0.000000
0
ARC
8
CUT
10
1.864933
20
-0.875000
30
0.000000
40
0.250000
50
90.000000
51
154.864699
0
CIRCLE
8
CUT
10
4.620000
20
0
30
0.000000
40
1.033500
0
TEXT
8
ETCH
10
0.000000
20
0.000000
30
0.000000
40
0.212159
1
NPS 2" CL150 FIG-8
50
0.000000
41
1.000000
7
STANDARD
72
1
73
2
11
0.000000
21
0.000000
31
0.000000
0
TEXT
8
ETCH
10
2.310000
20
0.000000
30
0.000000
40
0.172884
1
2" 150
50
0.000000
41
1.000000
7
STANDARD
72
1
73
2
11
2.310000
21
0.000000
31
0.000000
0
ENDSEC
0
EOF
