<svg xmlns="http://www.w3.org/2000/svg" viewBox="0 0 10.0750 5.9500" width="423.1" height="249.9">
<rect width="100%" height="100%" fill="#ffffff"/>
<g fill="none" stroke="#111111" stroke-width="0.0200">
<path d="M 5.5344 2.3917 A 2.6250 2.6250 0 1 0 5.5344 3.5583"/>
<path d="M 5.5344 2.3917 A 0.1875 0.1875 0 0 0 5.7172 2.5375"/>
<line x1="5.7172" y1="2.5375" x2="8.5375" y2="2.5375"/>
<path d="M 8.5375 2.5375 A 0.1875 0.1875 0 0 0 8.7250 2.3500"/>
<line x1="8.7250" y1="2.3500" x2="8.7250" y2="1.7250"/>
<path d="M 8.9750 1.4750 A 0.2500 0.2500 0 0 0 8.7250 1.7250"/>
<line x1="8.9750" y1="1.4750" x2="9.4750" y2="1.4750"/>
<path d="M 9.7250 1.7250 A 0.2500 0.2500 0 0 0 9.4750 1.4750"/>
<line x1="9.7250" y1="1.7250" x2="9.7250" y2="4.2250"/>
<path d="M 9.4750 4.4750 A 0.2500 0.2500 0 0 0 9.7250 4.2250"/>
<line x1="9.4750" y1="4.4750" x2="8.9750" y2="4.4750"/>
<path d="M 8.7250 4.2250 A 0.2500 0.2500 0 0 0 8.9750 4.4750"/>
<line x1="8.7250" y1="4.2250" x2="8.7250" y2="3.6000"/>
<path d="M 8.7250 3.6000 A 0.1875 0.1875 0 0 0 8.5375 3.4125"/>
<line x1="8.5375" y1="3.4125" x2="5.7172" y2="3.4125"/>
<path d="M 5.7172 3.4125 A 0.1875 0.1875 0 0 0 5.5344 3.5583"/>
<text x="2.9750" y="2.9750" font-size="0.3692" fill="#c0392b" stroke="none" text-anchor="middle" dominant-baseline="central" font-family="monospace">3 CL150 SKILLET</text>
</g>
</svg>
