0
SECTION
2
HEADER
9
$ACADVER
1
AC1009
9
$INSUNITS
70
1
9
$MEASUREMENT
70
0
9
$LUNITS
70
2
9
$EXTMIN
10
-3.437500
20
-3.437500
30
0.000000
9
$EXTMAX
10
7.750000
20
3.437500
30
0.000000
9
$LIMMIN
10
-3.437500
20
-3.437500
9
$LIMMAX
10
7.750000
20
3.437500
0
ENDSEC
0
SECTION
2
TABLES
0
TABLE
2
LTYPE
70
1
0
LTYPE
2
CONTINUOUS
70
0
3
Solid line
72
65
73
0
40
0.000000
0
ENDTAB
0
TABLE
2
LAYER
70
2
0
LAYER
2
CUT
70
0
62
7
6
CONTINUOUS
0
LAYER
2
ETCH
70
0
62
1
6
CONTINUOUS
0
ENDTAB
0
TABLE
2
STYLE
70
1
0
STYLE
2
STANDARD
70
0
40
0.000000
41
1.000000
50
0.000000
71
0
42
0.200000
3
txt
4

0
ENDTAB
0
ENDSEC
0
SECTION
2
ENTITIES
0
ARC
8
CUT
10
0
20
0
30
0.000000
40
3.437500
50
14.728396
51
345.271604
0
ARC
8
CUT
10
3.566336
20
0.937500
30
0.000000
40
0.250000
50
194.728396
51
270.000000
0
LINE
8
CUT
10
3.566336
20
0.687500
30
0.000000
11
6.250000
21
0.687500
31
0.000000
0
ARC
8
CUT
10
6.250000
20
0.937500
30
0.000000
40
0.250000
50
270.000000
51
0.000000
0
LINE
8
CUT
10
6.500000
20
0.937500
30
0.000000
11
6.500000
21
2.000000
31
0.000000
0
ARC
8
CUT
10
6.750000
20
2.000000
30
0.000000
40
0.250000
50
90.000000
51
180.000000
0
LINE
8
CUT
10
6.750000
20
2.250000
30
0.000000
11
7.500000
21
2.250000
31
0.000000
0
ARC
8
CUT
10
7.500000
20
2.000000
30
0.000000
40
0.250000
50
0.000000
51
90.000000
0
LINE
8
CUT
10
7.750000
20
2.000000
30
0.000000
11
7.750000
21
-2.000000
31
0.000000
0
ARC
8
CUT
10
7.500000
20
-2.000000
30
0.000000
40
0.250000
50
270.000000
51
0.000000
0
LINE
8
CUT
10
7.500000
20
-2.250000
30
0.000000
11
6.750000
21
-2.250000
31
0.000000
0
ARC
8
CUT
10
6.750000
20
-2.000000
30
0.000000
40
0.250000
50
180.000000
51
270.000000
0
LINE
8
CUT
10
6.500000
20
-2.000000
30
0.000000
11
6.500000
21
-0.937500
31
0.000000
0
ARC
8
CUT
10
6.250000
20
-0.937500
30
0.000000
40
0.250000
50
0.000000
51
90.000000
0
LINE
8
CUT
10
6.250000
20
-0.687500
30
0.000000
11
3.566336
21
-0.687500
31
0.000000
0
ARC
8
CUT
10
3.566336
20
-0.937500
30
0.000000
40
0.250000
50
90.000000
51
165.271604
0
CIRCLE
8
CUT
10
4.908168
20
0
30
0.000000
40
0.250000
0
TEXT
8
ETCH
10
0.000000
20
0.000000
30
0.000000
40
0.453292
1
4" CL150 SKILLET
50
0.000000
41
1.000000
7
STANDARD
72
1
73
2
11
0.000000
21
0.000000
31
0.000000
0
ENDSEC
0
EOF
