<svg xmlns="http://www.w3.org/2000/svg" viewBox="0 0 35.7625 28.3250" width="1502.0" height="1189.6">
<rect width="100%" height="100%" fill="#ffffff"/>
<g fill="none" stroke="#111111" stroke-width="0.0200">
<path d="M 27.9612 13.5459 A 13.8125 13.8125 0 1 0 27.9612 14.7791"/>
<path d="M 27.9612 13.5459 A 0.1875 0.1875 0 0 0 28.1485 13.7250"/>
<line x1="28.1485" y1="13.7250" x2="33.9750" y2="13.7250"/>
<path d="M 33.9750 13.7250 A 0.1875 0.1875 0 0 0 34.1625 13.5375"/>
<line x1="34.1625" y1="13.5375" x2="34.1625" y2="12.4125"/>
<path d="M 34.4125 12.1625 A 0.2500 0.2500 0 0 0 34.1625 12.4125"/>
<line x1="34.4125" y1="12.1625" x2="35.1625" y2="12.1625"/>
<path d="M 35.4125 12.4125 A 0.2500 0.2500 0 0 0 35.1625 12.1625"/>
<line x1="35.4125" y1="12.4125" x2="35.4125" y2="15.9125"/>
<path d="M 35.1625 16.1625 A 0.2500 0.2500 0 0 0 35.4125 15.9125"/>
<line x1="35.1625" y1="16.1625" x2="34.4125" y2="16.1625"/>
<path d="M 34.1625 15.9125 A 0.2500 0.2500 0 0 0 34.4125 16.1625"/>
<line x1="34.1625" y1="15.9125" x2="34.1625" y2="14.7875"/>
<path d="M 34.1625 14.7875 A 0.1875 0.1875 0 0 0 33.9750 14.6000"/>
<line x1="33.9750" y1="14.6000" x2="28.1485" y2="14.6000"/>
<path d="M 28.1485 14.6000 A 0.1875 0.1875 0 0 0 27.9612 14.7791"/>
<text x="14.1625" y="14.1625" font-size="0.5000" fill="#c0392b" stroke="none" text-anchor="middle" dominant-baseline="central" font-family="monospace">18 CL1500 SKILLET</text>
</g>
</svg>
